<?xml version="1.0" encoding="utf-8"?>
<!-- Generator: Adobe Illustrator 24.1.0, SVG Export Plug-In . SVG Version: 6.00 Build 0)  -->
<svg version="1.1" id="Capa_1" xmlns="http://www.w3.org/2000/svg" xmlns:xlink="http://www.w3.org/1999/xlink" x="0px" y="0px"
	 viewBox="0 0 177.96 417.96" style="enable-background:new 0 0 177.96 417.96;" xml:space="preserve">
<style type="text/css">
	.st0{fill:#E4E9EF;}
	.st1{fill:#8999A5;}
	.st2{fill:#9ABC39;}
	.st3{fill:none;stroke:#222221;stroke-miterlimit:10;}
</style>
<g>
	<path class="st0" d="M172.91,224.26c-0.92-1.15-1.48-2.65-2.1-3.98c-1.72-3.71-3.85-6.96-7.38-9.21c-0.95-0.6-1.95-1.11-3-1.5
		c-0.36-0.13-1.4-0.25-1.65-0.51c-0.29-0.3-0.28-1.65-0.35-2.06c-0.46-2.66-0.92-5.31-1.41-7.96c-0.98-5.39-2.01-10.77-3.12-16.13
		c-1.07-5.17-2.2-10.34-3.57-15.44c-0.65-2.43-1.87-4.97-2.18-7.44c-0.33-2.65-0.61-5.3-0.87-7.95c-1.07-10.77-1.89-21.56-3.2-32.31
		c-0.63-5.24-1.43-10.33-4.02-15.01c-2.29-4.13-5.65-7.52-9.62-10.06c-4.16-2.67-8.85-4.41-13.58-5.74c-4.59-1.3-9.6-1.6-12.49-5.89
		c-1.32-1.96-2.1-4.26-2.59-6.55c-0.25-1.19-0.42-2.39-0.51-3.6c-0.05-0.66-0.15-1,0.3-1.45c0.45-0.45,1.12-0.8,1.63-1.19
		c3.73-2.89,6.84-6.53,9.19-10.62c4.33-7.52,6.32-16.59,6.22-25.23c-0.07-6.52-1.12-13.08-4.57-18.75
		c-5.24-8.6-14.71-12.11-24.4-12.45c-9.45-0.37-19.44,2.83-25.18,10.7c-4.06,5.58-5.63,12.6-5.71,19.41
		c-0.1,8.47,1.43,17.15,5.35,24.72c2.13,4.13,4.99,7.87,8.5,10.93c0.84,0.74,1.72,1.43,2.63,2.08c0.69,0.49,0.94,0.48,0.89,1.36
		c-0.04,0.72-0.11,1.45-0.21,2.17c-0.33,2.38-0.94,4.76-2.02,6.92c-0.99,1.97-2.41,3.72-4.35,4.81c-2.06,1.15-4.58,1.44-6.84,2.03
		c-4.88,1.27-9.73,2.85-14.13,5.35c-4.12,2.34-7.74,5.5-10.33,9.49c-2.81,4.34-4.03,9.23-4.67,14.3
		c-1.35,10.73-2.23,21.5-3.25,32.27c-0.25,2.66-0.52,5.31-0.83,7.96c-0.15,1.27-0.2,2.58-0.63,3.79c-0.44,1.26-0.85,2.53-1.22,3.81
		c-1.5,5.12-2.64,10.34-3.75,15.55c-1.12,5.27-2.14,10.56-3.12,15.86c-0.49,2.65-0.97,5.3-1.43,7.96c-0.21,1.22-0.25,2.69-0.66,3.86
		c-0.31,0.88,0.04,0.29-0.5,0.62c-0.19,0.12-0.63,0.19-0.82,0.26c-0.54,0.19-1.08,0.4-1.6,0.65c-4,1.88-6.92,5.27-8.74,9.23
		c-0.61,1.33-1.2,2.67-1.92,3.94c-0.69,1.24-1.79,2.06-2.58,3.23c-1.17,1.74-0.39,3.07,1.65,3.24c2.3,0.2,4.31-1.2,5.79-2.82
		c-0.85,4.6-3.01,8.82-3.7,13.47c-0.25,1.68-0.26,6.08,2.69,4.77c2.41-1.06,3.49-5.18,4.34-7.4c-0.15,1.16-0.31,2.33-0.44,3.49
		c-0.26,2.4-0.87,5.59,0.14,7.88c0.37,0.83,1.1,1.49,2.07,1.33c1.1-0.19,1.69-1.33,2.1-2.25c1.09-2.45,1.52-5.26,2-7.88
		c-0.02,1.42-0.22,11.14,3.5,8.54c1.36-0.95,1.57-3.42,1.8-4.88c0.35-2.25,0.51-4.54,0.74-6.8c0.32,2.12,0.42,4.86,1.71,6.67
		c1.58,2.21,3.38,0.37,3.87-1.5c0.64-2.44,0.62-5.09,0.61-7.59c0-1.25-0.04-2.5-0.09-3.75c-0.06-1.41,0.16-2.81,0.26-4.22
		c0.2-2.73,0.27-5.5,0.01-8.23c-0.06-0.59-0.13-1.18-0.23-1.77c-0.09-0.53-0.41-1.26-0.4-1.78c0.02-0.97,1.31-2.65,1.81-3.62
		c2.43-4.73,5.03-9.48,7-14.43c1.99-5.01,3.44-10.31,4.82-15.52c1.37-5.15,2.63-10.4,3.16-15.72c0.19-1.95,0.32-3.4,0.84-5.24
		c0.65-2.3,1.3-4.6,1.95-6.89c1.22-4.31,2.44-8.63,3.67-12.94c0.07,4.31,0.12,8.62,0.17,12.93c0.06,5.52,0.3,11.09-0.12,16.6
		c-0.46,6.15-1.28,12.27-2,18.39c-0.5,4.25-1.01,8.5-1.5,12.76c-1.31,11.57-1.41,23.2-1.4,34.83c0.01,5.77,0.05,11.56,0.35,17.32
		c0.31,5.91,1.04,11.79,1.51,17.69c0.47,5.84,0.86,11.69,1.06,17.54c0.16,4.7,0.44,9.61-0.75,14.19
		c-2.92,11.28-2.08,22.83-0.78,34.25c1.33,11.65,2.29,23.36,2.96,35.06c0.17,2.92,0.32,5.84,0.39,8.76c0.04,1.89,0.49,4.59-0.45,6.3
		c-1.14,2.05-2.93,3.88-4.36,5.73c-1.68,2.17-3.1,4.5-4.92,6.56c-1.79,2.02-3.7,4.02-5.06,6.36c-1.09,1.87-1.83,4.36,0.01,6.03
		c1.87,1.7,4.92,1.68,7.29,1.87c2.36,0.19,5.1,0.48,7.33-0.48c0.13,2.22,2.43,2.49,4.18,2.55c2.05,0.07,3.81-0.4,5.27-1.91
		c1.46-1.51,2.37-3.52,3.12-5.45c0.35-0.89,0.54-1.76,1.18-2.47c0.71-0.79,1.35-1.63,1.92-2.52c2.36-3.69,3.22-7.99,1.95-12.23
		c-1.29-4.33-0.93-8.87-0.39-13.3c1.11-9.06,3.72-17.81,5.15-26.8c1.41-8.86,1.93-17.95,2.54-26.9c0.31-4.52,0.58-9.04,0.58-13.57
		c0-1.1-0.09-2.2-0.06-3.3c0.03-1.06,0.55-2.09,0.84-3.12c0.59-2.1,1.05-4.24,1.44-6.39c1.07-5.81,1.65-11.65,1.94-17.54
		c0.28-5.72,0.57-11.45,0.8-17.18c0.38-9.41,1.02-12.87,1.03-22.29c0-2.3-0.05-4.61-0.17-6.91c2.19,0.82,4.65,0.82,6.84,0
		c-0.55,10.69,0.3,17.5,0.74,28.2c0.23,5.7,0.49,9.4,0.77,15.1c0.23,4.72,0.45,9.4,1.07,14.09c0.57,4.34,1.28,8.7,2.47,12.92
		c0.26,0.93,0.76,1.92,0.85,2.86c0.11,1.15-0.07,2.39-0.07,3.55c0,2.25,0.08,4.5,0.18,6.75c0.41,9.05,1.2,18.1,2.15,27.1
		c0.95,9.08,3.29,17.85,4.92,26.82c0.81,4.46,1.51,9,1.52,13.54c0,2.19-0.25,4.26-0.88,6.36c-0.62,2.09-0.8,4.25-0.41,6.41
		c0.37,2.09,1.22,4.04,2.37,5.83c0.53,0.82,1.12,1.61,1.76,2.34c0.76,0.86,1,1.79,1.42,2.86c1.54,3.87,3.74,7.3,8.31,7.15
		c1.75-0.06,4.06-0.34,4.18-2.57c2.44,1.03,5.43,0.59,7.99,0.37c2.28-0.2,5.51-0.28,7.02-2.3c1.49-2,0.17-4.54-1.03-6.32
		c-1.5-2.22-3.38-4.14-5.12-6.16c-2.36-2.74-4.33-5.87-6.57-8.72c-0.78-0.99-1.8-2.01-2.29-3.16c-0.3-0.69-0.26-1.52-0.28-2.27
		c-0.04-1.43-0.02-2.86,0.02-4.29c0.34-11.67,1.4-23.35,2.55-34.96c1.15-11.59,2.99-22.98,1.58-34.65
		c-0.57-4.75-2.1-9.28-2.24-14.07c-0.17-5.75,0.16-11.5,0.51-17.23c0.7-11.62,2.2-23.16,2.38-34.82c0.1-5.93,0.1-11.87,0.02-17.8
		c-0.07-5.79-0.05-11.63-0.51-17.41c-0.45-5.62-1.19-11.22-1.85-16.82c-0.56-4.76-1.14-9.51-1.67-14.27
		c-0.61-5.5-1.02-10.92-1-16.45c0.02-5.87,0.09-11.74,0.17-17.61c0.02-1.24,0.04-2.48,0.05-3.72c1.02,3.6,2.04,7.2,3.06,10.8
		c0.72,2.54,1.44,5.07,2.16,7.61c0.34,1.2,0.83,2.45,1.04,3.68c0.38,2.25,0.35,4.6,0.73,6.87c0.44,2.65,1.01,5.28,1.64,7.89
		c1.28,5.3,2.79,10.56,4.5,15.73c1.68,5.07,4.08,9.8,6.48,14.55c0.61,1.2,1.22,2.41,1.84,3.61c0.27,0.53,0.54,1.05,0.81,1.57
		c0.22,0.42,1,1.42,1.06,1.83c0.06,0.45-0.33,1.28-0.42,1.75c-0.12,0.67-0.21,1.35-0.27,2.03c-0.13,1.33-0.17,2.68-0.16,4.02
		c0.01,2.98,0.53,5.96,0.41,8.93c-0.12,3.03-0.18,6.12,0.23,9.13c0.22,1.61,1.14,5.64,3.6,3.83c1.92-1.42,1.98-5.15,2.3-7.28
		c0.23,2.18,0.38,4.38,0.7,6.55c0.23,1.53,0.42,4.15,1.84,5.14c3.73,2.6,3.52-7.13,3.5-8.54c0.47,2.56,0.89,5.26,1.9,7.67
		c0.39,0.93,0.96,2.12,2.02,2.41c1.03,0.28,1.85-0.37,2.24-1.28c0.99-2.23,0.42-5.31,0.17-7.65c-0.14-1.25-0.3-2.49-0.47-3.73
		c0.86,2.24,1.88,6.09,4.17,7.33c3.01,1.63,3.12-2.99,2.86-4.7c-0.69-4.65-2.85-8.87-3.7-13.47c1.24,1.36,2.81,2.56,4.69,2.79
		c1.02,0.13,3.72-0.05,3.38-1.75C175.34,226.38,173.82,225.39,172.91,224.26z"/>
	<g>
		<path class="st1" d="M88.41,179.18c-0.15-0.84-0.21-2.26,0.83-2.57c-2.24-1.43-3.18,3.42-1.84,4.72c1.6,1.54,3.94-0.22,3.01-2.21
			C90.58,179.36,88.84,181.54,88.41,179.18z"/>
		<path class="st1" d="M68.06,313.03c-3.17,0.68-7.02,0.26-9.15-2.42c-2.2-2.77-2.73-6.69-3.01-10.11
			c-1.25,4.97-0.32,12.02,5.16,14.04c4.64,1.71,11.55-0.17,12.41-5.72C72.33,310.9,70.37,312.48,68.06,313.03z"/>
		<path class="st1" d="M17.92,221.6c-0.68,0.4-2.38,1.28-3.57,1.7c4.35,0.56,8.38-3.22,9.2-7.32
			C21.91,218.1,20.2,220.16,17.92,221.6z"/>
		<path class="st1" d="M115.94,312.56c-4.18,2.08-9.83,0.3-12.04-3.72c0.86,5.55,7.77,7.43,12.41,5.72
			c5.47-2.02,6.4-9.07,5.16-14.04C121.13,304.56,120.34,310.81,115.94,312.56z"/>
		<path class="st1" d="M175.49,227.95c-0.15-1.57-1.67-2.56-2.58-3.69c-0.92-1.15-1.48-2.65-2.1-3.98
			c-1.72-3.71-3.85-6.96-7.38-9.21c-0.95-0.6-1.95-1.11-3-1.5c-0.36-0.13-1.39-0.25-1.65-0.51c-0.29-0.3-0.28-1.65-0.35-2.06
			c-0.46-2.66-0.92-5.31-1.41-7.96c-0.98-5.39-2.01-10.77-3.12-16.13c-1.07-5.17-2.2-10.34-3.57-15.44
			c-0.65-2.43-1.87-4.97-2.18-7.44c-0.33-2.65-0.61-5.3-0.87-7.95c-1.07-10.77-1.89-21.56-3.2-32.31
			c-0.63-5.24-1.43-10.33-4.02-15.01c-2.29-4.13-5.65-7.52-9.62-10.06c-4.16-2.67-8.85-4.41-13.58-5.74
			c-4.59-1.3-9.6-1.6-12.49-5.89c-1.32-1.96-2.1-4.26-2.59-6.55c-0.25-1.19-0.42-2.39-0.51-3.6c-0.05-0.66-0.15-1,0.3-1.45
			c0.45-0.45,1.13-0.8,1.63-1.19c3.73-2.89,6.84-6.53,9.19-10.62c4.33-7.52,6.32-16.59,6.22-25.23c-0.07-6.52-1.12-13.08-4.57-18.75
			c-5.24-8.6-14.71-12.11-24.4-12.45c-9.45-0.37-19.44,2.83-25.18,10.7c-4.06,5.58-5.63,12.6-5.71,19.41
			c-0.1,8.47,1.43,17.15,5.35,24.72c2.13,4.13,4.99,7.87,8.5,10.93c0.84,0.74,1.72,1.43,2.63,2.08c0.69,0.49,0.94,0.48,0.89,1.36
			c-0.04,0.72-0.11,1.45-0.21,2.17c-0.33,2.38-0.94,4.76-2.02,6.92c-0.99,1.97-2.41,3.72-4.35,4.81c-2.06,1.15-4.58,1.44-6.84,2.03
			c-4.88,1.27-9.73,2.85-14.13,5.35c-4.12,2.34-7.74,5.5-10.33,9.49c-2.81,4.34-4.03,9.23-4.67,14.3
			c-1.35,10.73-2.23,21.5-3.25,32.27c-0.25,2.66-0.52,5.31-0.83,7.96c-0.15,1.27-0.2,2.58-0.63,3.79c-0.44,1.26-0.85,2.53-1.22,3.81
			c-1.5,5.12-2.64,10.34-3.75,15.55c-1.12,5.27-2.14,10.56-3.12,15.86c-0.49,2.65-0.97,5.3-1.43,7.96
			c-0.21,1.22-0.25,2.69-0.66,3.86c-0.31,0.88,0.04,0.29-0.5,0.62c-0.19,0.12-0.63,0.19-0.82,0.26c-0.54,0.19-1.08,0.4-1.6,0.65
			c-4,1.88-6.92,5.27-8.74,9.23c-0.61,1.33-1.2,2.67-1.92,3.94c-0.69,1.24-1.79,2.06-2.58,3.23c-1.17,1.74-0.39,3.07,1.65,3.24
			c2.3,0.2,4.31-1.2,5.79-2.82c-0.85,4.6-3.01,8.82-3.7,13.47c-0.25,1.68-0.26,6.08,2.69,4.77c2.41-1.06,3.49-5.18,4.34-7.4
			c-0.15,1.16-0.31,2.33-0.44,3.49c-0.26,2.4-0.87,5.59,0.14,7.88c0.37,0.83,1.1,1.49,2.07,1.33c1.1-0.19,1.69-1.33,2.1-2.25
			c1.1-2.45,1.52-5.26,2-7.88c-0.02,1.42-0.22,11.14,3.5,8.54c1.36-0.95,1.57-3.42,1.8-4.88c0.35-2.25,0.51-4.54,0.74-6.8
			c0.32,2.12,0.42,4.86,1.71,6.67c1.58,2.21,3.38,0.37,3.87-1.5c0.64-2.44,0.62-5.09,0.61-7.59c0-1.25-0.04-2.5-0.09-3.75
			c-0.06-1.41,0.16-2.81,0.26-4.22c0.2-2.73,0.27-5.5,0.01-8.23c-0.06-0.59-0.13-1.18-0.23-1.77c-0.09-0.53-0.41-1.26-0.4-1.78
			c0.02-0.97,1.31-2.65,1.81-3.62c2.43-4.73,5.03-9.48,7-14.43c1.99-5.01,3.44-10.31,4.82-15.52c1.37-5.15,2.63-10.4,3.16-15.72
			c0.19-1.95,0.32-3.4,0.84-5.24c0.65-2.3,1.3-4.6,1.95-6.89c1.22-4.31,2.44-8.63,3.67-12.94c0.07,4.31,0.12,8.62,0.17,12.93
			c0.06,5.52,0.3,11.09-0.12,16.6c-0.46,6.15-1.28,12.27-2,18.39c-0.5,4.25-1.01,8.5-1.5,12.76c-1.31,11.57-1.41,23.2-1.4,34.83
			c0.01,5.77,0.05,11.56,0.35,17.32c0.31,5.91,1.04,11.79,1.51,17.69c0.47,5.84,0.86,11.69,1.06,17.54
			c0.16,4.7,0.44,9.61-0.75,14.19c-2.92,11.28-2.08,22.83-0.78,34.25c1.33,11.65,2.29,23.36,2.96,35.06
			c0.17,2.92,0.32,5.84,0.39,8.76c0.04,1.89,0.49,4.59-0.45,6.3c-1.14,2.05-2.93,3.88-4.36,5.73c-1.68,2.17-3.1,4.5-4.92,6.56
			c-1.79,2.02-3.7,4.02-5.06,6.36c-1.09,1.87-1.83,4.36,0.01,6.03c1.87,1.7,4.92,1.68,7.29,1.87c2.36,0.19,5.1,0.48,7.33-0.48
			c0.13,2.22,2.43,2.49,4.18,2.55c2.05,0.07,3.81-0.4,5.27-1.91c1.46-1.51,2.37-3.52,3.12-5.45c0.35-0.89,0.54-1.76,1.18-2.47
			c0.71-0.79,1.35-1.63,1.92-2.52c2.36-3.69,3.22-7.99,1.95-12.23c-1.29-4.33-0.93-8.87-0.39-13.3c1.11-9.06,3.72-17.81,5.15-26.8
			c1.41-8.86,1.93-17.95,2.54-26.9c0.31-4.52,0.58-9.04,0.58-13.57c0-1.1-0.09-2.2-0.06-3.3c0.03-1.06,0.55-2.09,0.84-3.12
			c0.59-2.1,1.05-4.24,1.44-6.39c1.07-5.81,1.65-11.65,1.94-17.54c0.28-5.72,0.57-11.45,0.8-17.18c0.38-9.41,1.02-12.87,1.03-22.29
			c0-2.3-0.05-4.61-0.17-6.91c2.19,0.82,4.65,0.82,6.84,0c-0.55,10.69,0.3,17.5,0.74,28.2c0.23,5.7,0.49,9.4,0.77,15.1
			c0.23,4.72,0.45,9.4,1.07,14.09c0.57,4.34,1.28,8.7,2.47,12.92c0.26,0.93,0.76,1.92,0.85,2.86c0.11,1.15-0.07,2.39-0.07,3.55
			c0,2.25,0.08,4.5,0.18,6.75c0.41,9.05,1.2,18.1,2.15,27.1c0.95,9.08,3.29,17.85,4.92,26.82c0.81,4.46,1.51,9,1.52,13.54
			c0,2.19-0.25,4.26-0.88,6.36c-0.62,2.09-0.8,4.25-0.41,6.41c0.37,2.09,1.22,4.04,2.37,5.83c0.53,0.82,1.12,1.61,1.76,2.34
			c0.76,0.86,1,1.79,1.42,2.86c1.54,3.87,3.74,7.3,8.31,7.15c1.75-0.06,4.06-0.34,4.18-2.57c2.44,1.03,5.43,0.59,7.99,0.37
			c2.28-0.2,5.51-0.28,7.02-2.3c1.49-2,0.17-4.54-1.03-6.32c-1.5-2.22-3.38-4.14-5.12-6.16c-2.36-2.74-4.33-5.87-6.57-8.72
			c-0.78-0.99-1.8-2.01-2.29-3.16c-0.3-0.69-0.26-1.52-0.28-2.27c-0.04-1.43-0.02-2.86,0.02-4.29c0.34-11.67,1.4-23.35,2.55-34.96
			c1.15-11.59,2.99-22.98,1.58-34.65c-0.57-4.75-2.1-9.28-2.24-14.07c-0.17-5.75,0.16-11.5,0.51-17.23
			c0.7-11.62,2.2-23.16,2.38-34.82c0.1-5.93,0.1-11.87,0.02-17.8c-0.07-5.79-0.05-11.63-0.51-17.41
			c-0.45-5.62-1.19-11.22-1.85-16.82c-0.56-4.76-1.14-9.51-1.67-14.27c-0.61-5.5-1.02-10.92-1-16.45
			c0.02-5.87,0.09-11.74,0.17-17.61c0.02-1.24,0.04-2.48,0.05-3.72c1.02,3.6,2.04,7.2,3.06,10.8c0.72,2.54,1.44,5.07,2.16,7.61
			c0.34,1.2,0.83,2.45,1.04,3.68c0.38,2.25,0.35,4.6,0.73,6.87c0.44,2.65,1.01,5.28,1.64,7.89c1.28,5.3,2.79,10.56,4.5,15.73
			c1.68,5.07,4.08,9.8,6.48,14.55c0.61,1.2,1.22,2.41,1.84,3.61c0.27,0.53,0.54,1.05,0.81,1.57c0.22,0.42,1,1.42,1.06,1.83
			c0.06,0.45-0.33,1.28-0.42,1.75c-0.12,0.67-0.21,1.35-0.27,2.03c-0.13,1.33-0.17,2.68-0.16,4.02c0.01,2.98,0.53,5.96,0.41,8.93
			c-0.12,3.03-0.18,6.12,0.23,9.13c0.22,1.61,1.14,5.64,3.6,3.83c1.92-1.42,1.98-5.15,2.3-7.28c0.23,2.18,0.38,4.38,0.7,6.55
			c0.23,1.53,0.42,4.15,1.84,5.14c3.73,2.6,3.52-7.13,3.5-8.54c0.47,2.56,0.89,5.26,1.9,7.67c0.39,0.93,0.96,2.12,2.02,2.41
			c1.03,0.28,1.85-0.37,2.24-1.28c0.99-2.23,0.42-5.31,0.17-7.65c-0.13-1.25-0.3-2.49-0.47-3.73c0.86,2.24,1.88,6.09,4.17,7.33
			c3.01,1.63,3.12-2.99,2.86-4.7c-0.69-4.65-2.85-8.87-3.7-13.47c1.24,1.36,2.81,2.56,4.69,2.79
			C173.13,229.82,175.82,229.64,175.49,227.95z M68.7,61.43c-6.46-9.23-8.42-21.23-7.29-32.28c0.65-6.39,3.31-12.91,8.23-17.19
			c5.44-4.72,12.98-6.33,20.03-6.11s14.24,2.1,19.3,7.28c4.41,4.52,6.46,10.74,7.07,16.91c1.11,11.27-1.38,23.76-8.42,32.81
			c-2.36,3.03-5.23,5.66-8.48,7.71c-3.24,2.04-7.42,3.94-11.34,3.59C80.09,73.44,72.98,67.54,68.7,61.43z M21.7,247.48L21.7,247.48
			C21.71,247.48,21.71,247.48,21.7,247.48z M155.66,247.48L155.66,247.48C155.65,247.48,155.65,247.48,155.66,247.48z M173.21,228.1
			c-2.04,0.24-3.77-1.29-4.98-2.75c-0.57-0.69-0.98-1.63-1.58-2.27c-0.63-0.67-1.5-0.34-1.52,0.58c-0.04,1.66,0.66,3.6,0.95,5.24
			c0.56,3.09,2.03,6,2.8,9.05c0.17,0.67,1.43,5.36,0.39,5.66c-1,0.28-2.54-3.87-2.82-4.56c-0.63-1.51-1.17-3.06-1.76-4.59
			c-0.32-0.83-0.66-2.44-1.65-2.68c-2.12-0.51-0.94,4.28-0.79,5.41c0.37,2.8,0.84,5.62,0.85,8.44c0,0.61,0.16,2.43-0.37,2.91
			c-0.44,0.38-0.79-0.74-0.98-1.16c-0.87-2.02-1.25-4.29-1.66-6.43c-0.32-1.65-0.59-3.31-0.92-4.96c-0.15-0.72-0.24-1.67-0.67-2.29
			c-0.53-0.75-1.45-0.7-1.86,0.15c-0.39,0.81-0.21,2.16-0.2,3.02c0.02,1.32,0.07,2.65,0.08,3.97c0.01,1.22,0,2.45-0.09,3.67
			c-0.05,0.62-0.07,2.56-0.73,2.94c-0.74-0.66-0.87-2.35-1.02-3.27c-0.25-1.46-0.39-2.94-0.54-4.41c-0.15-1.59-0.23-3.23-0.55-4.8
			c-0.18-0.89-0.72-2.34-1.92-1.61c-0.88,0.54-0.94,2.15-1.08,3.05c-0.22,1.37-0.38,2.76-0.68,4.12c-0.12,0.52-0.45,2.56-1.16,2.64
			c-0.68-0.26-0.8-2.63-0.87-3.23c-0.16-1.41-0.21-2.83-0.23-4.24c-0.02-1.57,0.01-3.14,0.08-4.71c0.07-1.51-0.17-2.98-0.28-4.48
			c-0.22-3.06-0.3-6.2,0.17-9.24c0.21-1.39,0.65-2.64,1.14-3.94c0.16-0.42,0.48-1.06-0.18-1.29c-0.62-0.22-1.17,0.66-1.43,1.09
			c-3.06-6.23-6.46-12.51-8.57-19.13c-2.12-6.65-3.89-13.46-5.2-20.31c-0.65-3.36-1.19-6.77-1.3-10.19
			c-0.03-0.81-0.06-1.34-0.3-2.07c-0.75-2.27-1.51-4.53-2.26-6.8c-1.95-5.87-3.9-11.73-5.85-17.6c-0.52-1.57-0.4-3.02-0.37-4.69
			c0.03-1.59-0.07-3.22,0.4-4.75c0.2-0.65,1.76-3.1,1.06-3.5c-0.85-0.49-2.67,1.54-3.07,2.11c-1.6,2.25-1.2,5.39-1.24,8.03
			c-0.05,2.87-0.1,5.74-0.15,8.61c-0.11,6.54-0.21,13.08-0.24,19.62c-0.03,6.58,0.58,13.06,1.35,19.59
			c0.64,5.41,1.31,10.83,1.97,16.24c0.39,3.22,0.79,6.44,1.11,9.66c0.69,6.99,0.67,14.07,0.78,21.09c0.1,7.08,0.15,14.17-0.05,21.25
			c-0.2,6.98-1.01,13.91-1.52,20.87c-0.51,7-0.97,14.03-1,21.05c-0.02,3.32-0.15,6.85,0.66,10.09c0.64,2.59,1.25,5.14,1.62,7.79
			c1.95,13.86-0.65,27.67-1.86,41.47c-0.63,7.17-1.18,14.36-1.58,21.55c-0.19,3.54-0.39,7.09-0.34,10.63
			c0.02,1.28-0.11,2.86,0.46,4.05c0.45,0.94,1.2,1.8,1.84,2.61c0.84,1.07,1.7,2.13,2.55,3.2c1.55,1.94,2.84,4.07,4.44,5.96
			c1.99,2.35,4.3,4.49,5.91,7.14c0.59,0.97,1.45,2.48,0.71,3.58c-0.78,1.17-2.77,1.35-4.02,1.52c-1.5,0.2-3.03,0.34-4.54,0.41
			c-1.51,0.07-3.44,0.23-4.81-0.56c-0.81-0.47-1.39-2.43-2.35-2.32c-1.49,0.16-0.18,1.83,0.08,2.35c0.65,1.32,0.4,2.32-1.15,2.46
			c-1.36,0.12-2.92,0.03-4.05-0.82c-2.48-1.88-2.57-5.15-3.66-7.78c-0.38-0.92-1.56-1.54-2.25-2.26c-0.99-1.03-1.83-2.22-2.45-3.51
			c-1.23-2.55-1.43-5.31-0.65-8.03c1.65-5.75,0.98-11.81,0.24-17.67c-0.84-6.7-2.17-13.31-3.36-19.96
			c-1.22-6.79-1.68-13.73-2.22-20.61c-0.56-7.07-1.07-14.17-1.26-21.27c-0.04-1.66-0.01-3.32,0-4.98c0.01-1.11-0.45-2.05-0.75-3.11
			c-0.92-3.24-1.48-6.59-1.95-9.93c-0.92-6.49-1.25-12.97-1.57-19.5c-0.53-10.54-1.12-15.07-1.65-25.61
			c-0.17-3.38-0.34-6.76-0.65-10.14c-0.08-0.86-0.16-1.72-0.26-2.57c-0.09-0.79-0.49-2.8-0.03-3.31c0.26-0.29,0.66-0.49,0.93-0.77
			c0.47-0.48,0.85-1.03,1.07-1.67c-4.1,1.9-10.09,1.89-14.19,0c0.21,0.64,0.6,1.19,1.07,1.67c0.27,0.27,0.7,0.49,0.94,0.77
			c0.4,0.49-0.17,4.57-0.33,6.39c-0.3,3.37-0.46,6.75-0.63,10.13c-0.12,2.49-0.26,4.98-0.39,7.47c-0.28,5.23-0.56,4.46-0.83,9.69
			c-0.26,4.95-0.5,9.9-0.74,14.85c-0.23,4.55-0.7,9.07-1.37,13.58c-0.49,3.28-1.05,6.61-2.06,9.77c-0.37,1.15-0.51,1.79-0.48,3.02
			c0.04,1.75,0.01,3.5-0.05,5.24c-0.24,7.11-0.74,14.22-1.31,21.32c-0.56,6.85-1.07,13.74-2.31,20.51
			c-1.25,6.82-2.58,13.63-3.37,20.52c-0.38,3.35-0.69,6.75-0.58,10.12c0.07,2.25,0.56,4.27,1.11,6.42c0.76,2.94,0.29,5.92-1.24,8.53
			c-0.68,1.17-1.55,2.24-2.55,3.16c-1.01,0.93-1.56,1.26-1.9,2.58c-0.66,2.53-1.65,6.38-4.39,7.43c-1.01,0.38-2.57,0.49-3.61,0.22
			c-1.8-0.47-0.7-2.1-0.14-3.16c0.37-0.71,0.21-2.09-0.92-1.45c-0.46,0.26-0.7,1.09-1.03,1.48c-0.5,0.61-1.18,0.92-1.95,1.09
			c-2.87,0.62-6.48,0.07-9.34-0.48c-1.07-0.21-2.75-0.58-3.04-1.83c-0.3-1.32,0.88-2.92,1.58-3.91c1.85-2.59,4.26-4.7,6.15-7.25
			c2.18-2.94,4.44-5.8,6.65-8.73c0.57-0.75,1.26-1.58,1.54-2.5c0.45-1.45,0.28-3.23,0.27-4.73c-0.02-3.48-0.22-6.97-0.43-10.44
			c-0.41-6.96-0.97-13.91-1.6-20.85c-0.64-7.02-1.57-14-2.24-21.02c-0.66-6.87-0.58-13.86,0.42-20.69c0.38-2.56,1.02-5.03,1.61-7.55
			c0.78-3.33,0.62-6.96,0.59-10.35c-0.06-7.02-0.52-14.05-1.04-21.05c-0.52-7.05-1.33-14.07-1.51-21.14
			c-0.18-7.08-0.13-14.17-0.02-21.25c0.11-6.93,0.12-13.91,0.82-20.8c0.66-6.49,1.52-12.97,2.31-19.45
			c1.07-8.85,2.13-17.66,2.07-26.59c-0.06-9.14-0.23-18.28-0.39-27.42c-0.05-2.78,0.35-5.99-1.58-8.25
			c-0.36-0.42-2.45-2.41-2.94-1.41c-0.18,0.36,0.52,1.31,0.67,1.64c0.34,0.76,0.65,1.55,0.82,2.37c0.29,1.43,0.18,3.01,0.2,4.46
			c0.03,1.68,0.06,2.89-0.46,4.45c-0.88,2.65-1.76,5.3-2.64,7.95c-1.82,5.46-3.77,10.9-5.45,16.4c-0.29,0.95-0.22,1.88-0.28,2.88
			c-0.2,3.52-0.81,7.01-1.5,10.46c-1.31,6.57-3.03,13.12-5.1,19.49c-2.09,6.45-5.44,12.59-8.42,18.67
			c-0.26-0.43-0.84-1.35-1.48-1.08c-0.5,0.22-0.33,0.69-0.22,1.08c0.39,1.33,0.96,2.52,1.19,3.91c0.51,3.12,0.43,6.34,0.21,9.47
			c-0.1,1.41-0.36,2.82-0.29,4.23c0.07,1.57,0.11,3.14,0.1,4.71c-0.01,1.42-0.05,2.85-0.2,4.26c-0.07,0.66-0.17,3.17-0.89,3.45
			c-0.66-0.07-0.99-1.94-1.11-2.42c-0.32-1.35-0.48-2.73-0.69-4.1c-0.14-0.95-0.18-2.54-0.99-3.21c-1.21-0.98-1.86,0.63-2.04,1.53
			c-0.31,1.48-0.38,3.05-0.53,4.55c-0.14,1.48-0.28,2.96-0.52,4.42c-0.16,0.99-0.27,2.79-1.06,3.51c-0.53-0.31-0.61-1.77-0.67-2.25
			c-0.13-1.12-0.16-2.25-0.16-3.37c-0.01-2.29,0.25-4.62,0.07-6.9c-0.15-1.9-1.75-2.36-2.37-0.38c-0.32,1.03-0.48,2.13-0.68,3.19
			c-0.43,2.29-0.8,4.58-1.37,6.84c-0.24,0.95-0.49,1.91-0.88,2.81c-0.24,0.56-0.54,1.62-1.03,1.04s-0.32-2.09-0.32-2.79
			c0-1.23,0.12-2.45,0.24-3.67c0.12-1.11,0.26-2.22,0.41-3.33c0.1-0.73,0.2-1.46,0.29-2.2c0.15-1.14,0.65-2.8,0.29-3.9
			c-0.63-1.92-2.05-0.04-2.43,0.87c-0.42,0.99-0.78,2.02-1.15,3.03c-0.76,2.04-1.5,4.2-2.7,6.03c-0.24,0.36-0.78,1.32-1.23,1.02
			c-0.53-0.37-0.14-2.39-0.07-2.88c0.32-2.18,0.96-4.32,1.63-6.41c0.48-1.49,1.18-2.96,1.56-4.48c0.26-1.06,0.39-2.17,0.59-3.24
			c0.16-0.88,0.53-1.93,0.52-2.83c-0.01-0.72-0.59-1.25-1.29-0.83c-0.7,0.42-1.15,1.7-1.66,2.34c-1.27,1.59-3.51,3.66-5.76,2.77
			c0.33-0.9,1.17-1.58,1.8-2.28c0.69-0.75,1.16-1.62,1.62-2.53c0.76-1.5,1.36-3.09,2.13-4.58c1.32-2.55,3.52-4.79,5.94-6.31
			c1.31-0.82,2.71-1.38,4.2-1.82c0.46-0.14,1.35-0.22,1.72-0.57c0.75-0.73-0.21-1.05-0.83-1.01c2.12-10.89,4.4-21.77,7.11-32.53
			c0.66-2.61,1.34-5.21,2.09-7.79c0.69-2.35,1.69-4.62,2.35-6.97c0.66-2.36,0.59-5.17,0.81-7.6c0.25-2.77,0.47-5.54,0.68-8.31
			c0.43-5.53,0.84-11.06,1.34-16.59c0.48-5.35,0.73-10.91,1.87-16.17c2.18-10.01,9.42-16.68,18.67-20.41
			c2.7-1.09,5.49-1.95,8.3-2.71c2.61-0.71,5.39-1.11,7.66-2.67c4.58-3.15,6.09-9.39,6.33-14.63c3.34,2.05,7.39,3.8,11.38,3.78
			c3.99-0.01,8.02-1.73,11.38-3.78c0.21,4.74,1.44,10.21,5.03,13.58c1.74,1.64,3.79,2.37,6.05,2.95c2.55,0.66,5.1,1.34,7.6,2.17
			c9.26,3.07,17.74,8.45,21.2,17.99c1.81,5.01,2.04,10.51,2.55,15.76c0.54,5.52,0.99,11.04,1.41,16.57
			c0.42,5.55,0.83,11.09,1.4,16.63c0.11,1.07,0.11,2.24,0.38,3.29c0.29,1.14,0.84,2.25,1.21,3.36c0.84,2.5,1.55,5.04,2.24,7.58
			c3.24,12.03,5.76,24.27,8.14,36.5c-0.54-0.03-1.49,0.17-0.94,0.95c0.28,0.39,1.21,0.45,1.61,0.57c1.48,0.44,2.89,0.95,4.22,1.76
			c2.5,1.52,4.78,3.82,6.13,6.43c0.73,1.42,1.31,2.93,2.02,4.36c0.48,0.95,0.95,1.91,1.68,2.7c0.65,0.7,1.52,1.41,1.86,2.33
			C173.64,228.02,173.43,228.07,173.21,228.1z"/>
		<path class="st1" d="M159.55,221.68c-2.14-1.33-4.09-3.56-5.74-5.69c0.82,4.09,4.85,7.87,9.2,7.32
			C161.84,222.89,160.4,222.18,159.55,221.68z"/>
	</g>
</g>
<circle id="Menton" class="st2" cx="88.71" cy="72.18" r="8.43"/>
<circle id="Bras" class="st2" cx="135.38" cy="144.57" r="8.43"/>
<ellipse id="Poignées_d_x27_amour" class="st2" cx="121.95" cy="181.92" rx="8.43" ry="8.43"/>
<circle id="Genoux" class="st2" cx="65.44" cy="301.4" r="8.43"/>
<circle id="Adipomastie" class="st2" cx="102.22" cy="124.71" r="8.43"/>
<circle id="Ventre" class="st2" cx="83.79" cy="191.24" r="8.43"/>
<circle id="Mont_de_venus" class="st2" cx="88.68" cy="221.3" r="8.43"/>
<line class="st3" x1="1.96" y1="72.18" x2="80.27" y2="72.18"/>
<line class="st3" x1="1.96" y1="191.24" x2="75.35" y2="191.24"/>
<line class="st3" x1="143.82" y1="144.57" x2="174.97" y2="144.57"/>
<line class="st3" x1="130.38" y1="181.92" x2="174.97" y2="181.92"/>
<line class="st3" x1="96.71" y1="221.3" x2="174.97" y2="221.3"/>
<line class="st3" x1="110.65" y1="124.71" x2="173.85" y2="124.71"/>
<line class="st3" x1="1.96" y1="301.49" x2="57.38" y2="301.29"/>
</svg>