<svg id="Capa_2" data-name="Capa 2" xmlns="http://www.w3.org/2000/svg" viewBox="0 0 184.45 418.18"><defs><style>.cls-1{fill:#e4e9ef;}.cls-2{fill:#8999a5;}.cls-3{fill:#9abc39;}.cls-4{fill:none;stroke:#222221;stroke-miterlimit:10;}</style></defs><path class="cls-1" d="M179,227.87a8.8,8.8,0,0,0-1.65-2.15,10.37,10.37,0,0,1-1.71-2.47,48.23,48.23,0,0,0-2.77-5.52A21.25,21.25,0,0,0,168.2,213a23.68,23.68,0,0,0-2.71-1.76c-.83-.46-2.64-.93-3-1.66-.49-.9-.45-2.58-.64-3.6-.23-1.28-.46-2.56-.7-3.85q-.69-3.72-1.41-7.43c-1-4.95-2-9.89-3.06-14.81s-2.2-9.72-3.67-14.48c-.35-1.12-.76-2.21-1.11-3.33a19.46,19.46,0,0,1-.56-3.81q-.39-3.73-.72-7.47c-.89-10-1.63-20-2.77-30-.54-4.8-1.24-9.44-3.26-13.88a27.14,27.14,0,0,0-7.73-9.7A40.27,40.27,0,0,0,125,90.82c-2.23-.8-4.49-1.46-6.77-2.07s-4.53-.9-6.5-2c-3.71-2.11-5.31-6.58-6-10.57a14.3,14.3,0,0,1-.43-3.38c0-.67.25-.66.84-1.09s.9-.67,1.34-1a35.52,35.52,0,0,0,4.42-4.25c5.88-6.73,8.88-15.27,10-24.05,1.14-9.24.51-19.7-5.21-27.45s-14.86-10.6-24-10.6-18.26,3-23.88,10.44c-5.78,7.7-6.45,18.14-5.35,27.38,1.05,8.8,4,17.36,9.87,24.13a34.07,34.07,0,0,0,4.39,4.27c.38.31.77.61,1.17.91.25.19,1.06.57,1.21.86a5.16,5.16,0,0,1-.1,1.69c-.07.73-.16,1.46-.29,2.18-.69,4.06-2.3,8.55-6.07,10.69-1.91,1.09-4.2,1.41-6.29,2-2.28.61-4.55,1.27-6.78,2.06a40.91,40.91,0,0,0-11.86,6.27A27,27,0,0,0,40.74,107c-2,4.5-2.7,9.21-3.25,14.08-1.13,10.08-1.86,20.2-2.75,30.3-.22,2.41-.44,4.81-.7,7.22a18.42,18.42,0,0,1-.52,3.56c-.41,1.27-.88,2.52-1.27,3.79-1.44,4.69-2.54,9.48-3.62,14.26S26.51,190,25.54,195c-.48,2.46-1,4.93-1.42,7.4l-.66,3.58-.33,1.79a6.53,6.53,0,0,1-.36,2.05,7.44,7.44,0,0,1-1.82.77c-.45.22-.88.45-1.32.69a24.16,24.16,0,0,0-3.08,2,20.75,20.75,0,0,0-4.38,4.64,60.15,60.15,0,0,0-2.77,5.57c-.87,1.65-2.59,2.79-3.29,4.5s1.08,2.54,2.62,2.51A7.63,7.63,0,0,0,14,227.63c-.83,4.52-2.92,8.68-3.65,13.25a7.5,7.5,0,0,0,.06,3.85,1.89,1.89,0,0,0,2.87,1c2.27-1.39,3.26-5.23,4.14-7.57-.14,1.06-.29,2.11-.42,3.16-.3,2.57-.87,5.68-.07,8.2a2,2,0,0,0,2,1.68c1.11-.06,1.74-1.13,2.17-2,1.23-2.59,1.65-5.65,2.16-8.45,0,1.43-.31,11.52,3.45,8.9,1.42-1,1.6-3.57,1.83-5.12.33-2.21.48-4.45.72-6.68.33,2.17.41,4.95,1.73,6.79,1.46,2.06,3.27.55,3.8-1.29,1.42-5,.46-10.62.69-15.71.13-2.73.2-5.46.16-8.19,0-1.31-.27-2.68-.21-4s1.09-2.7,1.7-3.9a137.94,137.94,0,0,0,7-14.51,159.94,159.94,0,0,0,4.68-15.31,97.08,97.08,0,0,0,3-15.47,26.68,26.68,0,0,1,.84-5.08q1-3.47,2-6.94l3.63-12.81c.14,8.41.29,16.83.23,25.25a139.78,139.78,0,0,1-1.25,14.73c-.57,5-1.17,10-1.77,15s-1.27,9.83-1.56,14.77-.34,9.91-.41,14.86c-.16,10.05-.29,20.16.37,30.19s1.87,20.08,2.34,30.17c.22,4.84.55,9.85-.06,14.68-.29,2.23-1,4.41-1.44,6.64a72.41,72.41,0,0,0-.9,7.19c-.79,10.2.76,20.19,1.76,30.32s1.83,20.21,2.34,30.33c.13,2.53.23,5.05.27,7.57,0,1.62.25,3.5-.46,5-.59,1.22-1.22,2.42-1.79,3.65-.93,2-1.85,4-2.77,5.95-.53,1.14-.47,1.08-1.79,1.46A12.88,12.88,0,0,0,45.78,402c-3.2,3.16-.63,7.38,2.37,9.56,1.7,1.25,3.87.94,5.86.78a31.62,31.62,0,0,1,3.23-.18,8.33,8.33,0,0,1,3.17,1.19c3.88,1.72,8.72,2.74,12.84,1.3,4.6-1.6,5.38-6.45,5-10.75s-2.43-8.28-2.83-12.59c-.47-4.94.21-10,.88-14.92,1.35-9.89,3.59-19.66,4.66-29.59s2-19.75,2.35-29.65c.1-2.47.15-4.94.11-7.41a15.63,15.63,0,0,1,0-1.81,8.9,8.9,0,0,1,.48-1.63c.36-1.09.65-2.22.92-3.34a111.39,111.39,0,0,0,2.35-14.42c.51-4.91.78-9.86,1.08-14.78.51-8.25,1-16.52,1.24-24.78.06-2.41.07-4.83-.06-7.24a6.5,6.5,0,0,1-.12-1.81c.15-.35.95-.76,1.25-1.05a13.87,13.87,0,0,0,2-2.44,14,14,0,0,0,1.85,2.28c.35.35,1,.66,1.23,1.07s.1,1.32.07,2c-.13,2.5-.12,5,0,7.5.08,2.77.22,5.54.37,8.31q.34,6.65.7,13.3c.58,10.81,1.07,21.8,3.65,32.34.25,1.05.52,2.09.86,3.11a8.9,8.9,0,0,1,.48,1.63,20.44,20.44,0,0,1,0,2.07c0,2.47,0,4.94.12,7.41.2,4.9.58,9.79,1,14.68.8,10,1.93,19.79,3.65,29.64.87,5,1.74,9.93,2.42,14.92s1.35,10,.82,14.9c-.47,4.37-2.54,8.42-2.84,12.8s.78,9,5.47,10.43c4.2,1.26,9,.19,12.85-1.62a6.45,6.45,0,0,1,2.75-1c1.24,0,2.48.12,3.71.22,1.94.15,3.9.33,5.52-.92,3-2.35,5.47-6.6,2-9.7a14,14,0,0,0-5.72-2.72c-1.05-.28-1-.56-1.45-1.52-1.5-3.21-3.16-6.38-4.58-9.63-.67-1.52-.38-3.65-.35-5.29,0-2.52.15-5.05.28-7.57.27-5.06.64-10.12,1-15.18s.83-10.11,1.33-15.15,1.24-10.06,1.65-15.11a93.28,93.28,0,0,0,0-14.95,71.75,71.75,0,0,0-1-7.44c-.4-2.13-1.13-4.21-1.37-6.36a92.62,92.62,0,0,1,0-14.71q.36-7.59,1-15.17c.41-5,1-10,1.33-15s.39-10,.43-15c.08-10,.16-20.09-.49-30.07S129,191,127.88,181.1a137.14,137.14,0,0,1-1.22-14.72c0-2.8,0-5.59,0-8.39q.07-6.63.16-13.26c0-1.12,0-2.24,0-3.35q1.52,5.33,3,10.67c.72,2.55,1.45,5.09,2.17,7.64.35,1.24.83,2.5,1.06,3.77.4,2.15.34,4.45.69,6.64.42,2.56,1,5.11,1.56,7.63,1.25,5.24,2.73,10.42,4.4,15.53a103.4,103.4,0,0,0,6.38,14.61l1.73,3.4c.58,1.13,1.73,2.64,1.84,3.88a38.56,38.56,0,0,1-.22,4c0,1.32,0,2.64,0,4,.06,3.13.35,6.26.24,9.38a51.75,51.75,0,0,0,.24,8.89c.21,1.6,1.14,5.62,3.58,3.82,2-1.45,2-5.23,2.31-7.41.24,2.23.39,4.47.72,6.68.23,1.54.41,4.13,1.83,5.12,3.76,2.62,3.48-7.48,3.45-8.9a36.55,36.55,0,0,0,2.07,8.25c.41.9,1,2,2.08,2.22s1.85-.72,2.15-1.67c.78-2.46.23-5.46-.05-8-.12-1.14-.29-2.27-.44-3.4.9,2.37,1.83,5.93,4,7.48a1.91,1.91,0,0,0,3-.87,7.5,7.5,0,0,0,.06-3.85c-.73-4.57-2.82-8.73-3.65-13.25a7.63,7.63,0,0,0,5.27,2.86C178,230.52,179.79,229.77,179,227.87Z"/><path class="cls-2" d="M98.22,69.85c-4.21-1.7-10-1.84-13.61,1.27,5.37-1.53,10.51-1,15.9,0A12.82,12.82,0,0,0,98.22,69.85ZM62.82,303.46c4.28-2.07,9.46-1.55,13.77.15-4-4.73-11.21-3.9-15.19.38C61.88,303.83,62.35,303.65,62.82,303.46ZM45.78,167c-2.68,3-5.91,1.9-9.33,1.28,1.77,1.66,4.31,2.76,6.74,2A5.43,5.43,0,0,0,47,165.46,12.38,12.38,0,0,1,45.78,167Zm26,228.48c-.08-.54-.81-1.77-.62-2.21-.33.75.2,2.52.39,3.3.34,1.43.81,2.82,1.13,4.25a16.15,16.15,0,0,1,.4,6.41c-.45,2.26-2,2.72-4.12,2.86-2,.13-4.11-.19-4.91-2.22s-.27-4.66.24-6.71c.44-1.77,1.08-3.47,1.49-5.25.21-.94,1.11-3.61.52-4.52,0,.07-.33,1.56-.39,1.83-.18.72-.44,1.43-.65,2.14-.49,1.64-1.12,3.2-1.68,4.82-1.25,3.57-2.17,9.6,2.64,10.81a9.11,9.11,0,0,0,6.11-.59c1.94-1.17,2.07-3.84,1.91-5.83a20.86,20.86,0,0,0-1.08-5A29.8,29.8,0,0,1,71.78,395.5Zm36.75-91.89a20.7,20.7,0,0,1,7.53-1.49c2.83,0,5,1,7.66,1.87C119.74,299.71,112.51,298.88,108.53,303.61Zm11.59,92.67c-.27-1-.62-1.94-.87-2.92a13.8,13.8,0,0,1-.43-1.95c-.59.9.32,3.6.52,4.52.39,1.72,1,3.35,1.45,5.05.54,2.1,1.11,4.81.28,6.91s-2.95,2.35-4.9,2.22c-2.13-.14-3.68-.58-4.13-2.86a16.09,16.09,0,0,1,.37-6.29c.33-1.47.81-2.9,1.16-4.37.19-.8.72-2.53.39-3.3.19.44-.61,2.21-.76,2.75-.41,1.4-1,2.75-1.44,4.13-.9,2.83-2.14,8.34,1,10.25a9.13,9.13,0,0,0,5.9.63,4.57,4.57,0,0,0,3.71-3.75C123.2,403.35,121.09,399.93,120.12,396.28Zm26.57-227.52c-1.75.32-3.47.62-5.17-.13a8.44,8.44,0,0,1-3.43-3.17,5.43,5.43,0,0,0,3.84,4.88,7.13,7.13,0,0,0,6.74-2C148,168.42,147.36,168.64,146.69,168.76ZM179,227.87a8.8,8.8,0,0,0-1.65-2.15,10.37,10.37,0,0,1-1.71-2.47,48.23,48.23,0,0,0-2.77-5.52A21.25,21.25,0,0,0,168.2,213a23.68,23.68,0,0,0-2.71-1.76c-.83-.46-2.64-.93-3-1.66-.49-.9-.45-2.58-.64-3.6-.23-1.28-.46-2.56-.7-3.85q-.69-3.72-1.41-7.43c-1-4.95-2-9.89-3.06-14.81s-2.2-9.72-3.67-14.48c-.35-1.12-.76-2.21-1.11-3.33a19.46,19.46,0,0,1-.56-3.81q-.39-3.73-.72-7.47c-.89-10-1.63-20-2.77-30-.54-4.8-1.24-9.44-3.26-13.88a27.14,27.14,0,0,0-7.73-9.7A40.27,40.27,0,0,0,125,90.82c-2.23-.8-4.49-1.46-6.77-2.07s-4.53-.9-6.5-2c-3.71-2.11-5.31-6.58-6-10.57a14.3,14.3,0,0,1-.43-3.38c0-.67.25-.66.84-1.09s.9-.67,1.34-1a35.52,35.52,0,0,0,4.42-4.25c5.88-6.73,8.88-15.27,10-24.05,1.14-9.24.51-19.7-5.21-27.45s-14.86-10.6-24-10.6-18.26,3-23.88,10.44c-5.78,7.7-6.45,18.14-5.35,27.38,1.05,8.8,4,17.36,9.87,24.13a34.07,34.07,0,0,0,4.39,4.27c.38.31.77.61,1.17.91.25.19,1.06.57,1.21.86a5.16,5.16,0,0,1-.1,1.69c-.07.73-.16,1.46-.29,2.18-.69,4.06-2.3,8.55-6.07,10.69-1.91,1.09-4.2,1.41-6.29,2-2.28.61-4.55,1.27-6.78,2.06a40.91,40.91,0,0,0-11.86,6.27A27,27,0,0,0,40.74,107c-2,4.5-2.7,9.21-3.25,14.08-1.13,10.08-1.86,20.2-2.75,30.3-.22,2.41-.44,4.81-.7,7.22a18.42,18.42,0,0,1-.52,3.56c-.41,1.27-.88,2.52-1.27,3.79-1.44,4.69-2.54,9.48-3.62,14.26S26.51,190,25.54,195c-.48,2.46-1,4.93-1.42,7.4l-.66,3.58-.33,1.79a6.53,6.53,0,0,1-.36,2.05c-.25.31-1.44.6-1.82.77s-.88.45-1.32.69a24.16,24.16,0,0,0-3.08,2,20.75,20.75,0,0,0-4.38,4.64,60.15,60.15,0,0,0-2.77,5.57c-.87,1.65-2.59,2.79-3.29,4.5s1.08,2.54,2.62,2.51A7.63,7.63,0,0,0,14,227.63c-.83,4.52-2.92,8.68-3.65,13.25a7.5,7.5,0,0,0,.06,3.85,1.89,1.89,0,0,0,2.87,1c2.27-1.39,3.26-5.23,4.14-7.57-.14,1.06-.29,2.11-.42,3.16-.3,2.57-.87,5.68-.07,8.2a2.06,2.06,0,0,0,2,1.69c1.11-.07,1.74-1.14,2.17-2,1.23-2.59,1.65-5.65,2.16-8.45,0,1.43-.31,11.52,3.45,8.9,1.42-1,1.6-3.57,1.83-5.12.33-2.21.48-4.45.72-6.68.33,2.17.41,4.95,1.73,6.79,1.46,2.06,3.27.55,3.8-1.29,1.42-5,.46-10.62.69-15.71.13-2.73.2-5.46.16-8.19,0-1.31-.27-2.68-.21-4s1.09-2.7,1.7-3.9a137.94,137.94,0,0,0,7-14.51,159.94,159.94,0,0,0,4.68-15.31,97.08,97.08,0,0,0,3-15.47,26.68,26.68,0,0,1,.84-5.08l2-6.94,3.63-12.81c.14,8.41.29,16.83.23,25.25a139.78,139.78,0,0,1-1.25,14.73c-.57,5-1.17,10-1.77,15s-1.27,9.83-1.56,14.77-.34,9.91-.41,14.86c-.16,10.05-.29,20.16.37,30.19s1.87,20.08,2.34,30.17c.22,4.84.55,9.85-.06,14.68-.29,2.23-1,4.41-1.44,6.64a72.41,72.41,0,0,0-.9,7.19c-.79,10.2.76,20.19,1.76,30.32s1.83,20.21,2.34,30.33c.13,2.53.23,5.05.27,7.57,0,1.62.25,3.5-.46,5-.59,1.22-1.22,2.42-1.79,3.65-.93,2-1.85,4-2.77,5.95-.53,1.14-.47,1.08-1.79,1.46A12.88,12.88,0,0,0,45.78,402c-3.2,3.16-.63,7.38,2.37,9.56,1.7,1.25,3.87.94,5.86.78a31.62,31.62,0,0,1,3.23-.18,8.33,8.33,0,0,1,3.17,1.19c3.88,1.72,8.72,2.74,12.84,1.3,4.6-1.6,5.38-6.45,5-10.75s-2.43-8.28-2.83-12.59c-.47-4.94.21-10,.88-14.92,1.35-9.89,3.59-19.66,4.66-29.59s2-19.75,2.35-29.65c.1-2.47.15-4.94.11-7.41a15.63,15.63,0,0,1,0-1.81,8.9,8.9,0,0,1,.48-1.63c.36-1.09.65-2.22.92-3.34a111.39,111.39,0,0,0,2.35-14.42c.51-4.91.78-9.86,1.08-14.78.51-8.25,1-16.52,1.24-24.78.06-2.41.07-4.83-.06-7.24a6.5,6.5,0,0,1-.12-1.81c.15-.35.95-.76,1.25-1.05a13.87,13.87,0,0,0,2-2.44,14,14,0,0,0,1.85,2.28c.35.35,1,.66,1.23,1.07s.1,1.32.07,2c-.13,2.5-.12,5,0,7.5.08,2.77.22,5.54.37,8.31l.7,13.3c.58,10.81,1.07,21.8,3.65,32.34.25,1.05.52,2.09.86,3.11a8.9,8.9,0,0,1,.48,1.63,20.44,20.44,0,0,1,0,2.07c0,2.47,0,4.94.12,7.41.2,4.9.58,9.79,1,14.68.8,10,1.93,19.79,3.65,29.64.87,5,1.74,9.93,2.42,14.92s1.35,10,.82,14.9c-.47,4.37-2.54,8.42-2.84,12.8s.78,9,5.47,10.43c4.2,1.26,9,.19,12.85-1.62a6.58,6.58,0,0,1,2.75-1c1.24,0,2.48.12,3.71.22,1.94.15,3.9.33,5.52-.92,3-2.35,5.47-6.6,2-9.7a14,14,0,0,0-5.72-2.72c-1.05-.28-1-.56-1.45-1.52-1.5-3.21-3.16-6.38-4.58-9.63-.67-1.52-.38-3.65-.35-5.29,0-2.52.15-5.05.28-7.57.27-5.06.64-10.12,1-15.18s.83-10.11,1.33-15.15,1.24-10.06,1.65-15.11a93.28,93.28,0,0,0,0-14.95,71.75,71.75,0,0,0-1-7.44c-.4-2.13-1.13-4.21-1.37-6.36a92.62,92.62,0,0,1,0-14.71q.36-7.59,1-15.17c.41-5,1-10,1.33-15s.39-10,.43-15c.08-10,.16-20.09-.49-30.07S129,191,127.88,181.1a137.14,137.14,0,0,1-1.22-14.72c0-2.8,0-5.59,0-8.39l.16-13.26c0-1.12,0-2.24,0-3.35l3,10.67,2.17,7.64c.35,1.24.83,2.5,1.06,3.77.4,2.15.34,4.45.69,6.64.42,2.56,1,5.11,1.56,7.63,1.25,5.24,2.73,10.42,4.4,15.53a103.4,103.4,0,0,0,6.38,14.61l1.73,3.4c.58,1.13,1.73,2.64,1.84,3.88a38.56,38.56,0,0,1-.22,4c0,1.32,0,2.64,0,4,.06,3.13.35,6.26.24,9.38a51.75,51.75,0,0,0,.24,8.89c.21,1.6,1.14,5.62,3.58,3.82,2-1.45,2-5.23,2.31-7.41.24,2.23.39,4.47.72,6.68.23,1.54.41,4.13,1.83,5.12,3.76,2.62,3.48-7.48,3.45-8.9a36.55,36.55,0,0,0,2.07,8.25c.41.9,1,2,2.08,2.22s1.85-.72,2.15-1.67c.78-2.46.23-5.46-.05-8-.12-1.14-.29-2.27-.44-3.4.9,2.37,1.83,5.93,4,7.48a1.91,1.91,0,0,0,3-.87,7.5,7.5,0,0,0,.06-3.85c-.73-4.57-2.82-8.73-3.65-13.25a7.63,7.63,0,0,0,5.27,2.86C178,230.52,179.79,229.77,179,227.87Zm-1.83.94c-1.94.38-3.73-1.05-4.94-2.41-.68-.77-1.12-1.85-1.82-2.57a.83.83,0,0,0-1.52.57,10.19,10.19,0,0,0,.36,2l.62,3.36c.57,3.12,2.08,6.08,2.84,9.18.15.6,1.34,5.25.32,5.46s-2.63-4-3-4.77c-.61-1.49-1.15-3-1.73-4.5-.3-.8-.67-2.44-1.68-2.55-1.93-.21-.76,4.32-.61,5.47a60.78,60.78,0,0,1,.84,8.61c0,.38,0,2.7-.45,2.82s-.82-.93-1-1.29a31,31,0,0,1-1.66-6.45c-.31-1.63-.59-3.27-.91-4.89a6.4,6.4,0,0,0-.68-2.34,1,1,0,0,0-1.8.14,7.05,7.05,0,0,0-.2,3c0,1.33.07,2.65.08,4s0,2.46-.1,3.68c0,.41-.14,2.87-.76,3-.8-.64-.93-2.62-1.08-3.53-.22-1.39-.36-2.78-.49-4.18a39.9,39.9,0,0,0-.6-5c-.2-.88-.89-2.19-2-1.32-.84.69-.89,2.48-1,3.43s-.57,6.34-1.79,6.3c-.66-.09-.84-2.94-.89-3.46a46.26,46.26,0,0,1-.21-5.26c0-1.49.14-3,.14-4.46,0-1.77-.19-3.56-.25-5.33a96.37,96.37,0,0,1,.13-9.91c.08-1.16-.71-2.05-1.22-3.09q-1.17-2.4-2.32-4.81c-1.51-3.16-3.05-6.33-4.36-9.58a87.7,87.7,0,0,1-3-9.4,131.2,131.2,0,0,1-4.43-20.84,39.12,39.12,0,0,0-.39-5.1c-.16-.66-.44-1.32-.65-2l-2.77-8.32L129,142.55a60.37,60.37,0,0,1-1.92-5.79c-.4-1.78,0-4,0-5.89a9.52,9.52,0,0,1,.64-3.33c.25-.65,1.88-3.16.1-2.56-2.51.85-3.51,3.72-3.56,6.1q-.13,6.27-.22,12.55c-.08,5.63-.18,11.25-.23,16.88a169.76,169.76,0,0,0,1.15,20.66c.78,7,1.7,13.91,2.53,20.87,1.67,14,1.71,28.22,1.59,42.33-.12,13.95-1.9,27.8-2.47,41.73-.14,3.42-.22,6.85-.15,10.27a43.69,43.69,0,0,0,.31,5c.21,1.56.71,3.05,1,4.58a78,78,0,0,1,1.56,20.56c-.32,7.07-1.47,14.1-2.15,21.14s-1.26,13.92-1.73,20.9c-.23,3.48-.45,7-.58,10.47-.11,2.8-.6,6.17.12,8.92a18.46,18.46,0,0,0,1.61,3.28c.43.85.84,1.7,1.26,2.56l2.14,4.41c.41.83.72,2,1.59,2.42,1.26.61,2.83.7,4.13,1.29s2.77,1.43,3.19,2.84c.65,2.23-2.1,5.56-4.24,5.94-2.68.48-5.8-1-8.39,0-1.46.55-2.78,1.52-4.28,2a13.64,13.64,0,0,1-4.84.89c-2.9,0-6.3-.67-7.38-3.76s-.17-6.49.3-9.62c.52-3.39,1-6.87,1.18-10.3a76.26,76.26,0,0,0-.42-10.36c-.6-7-1.56-14.05-2.58-21a423.43,423.43,0,0,1-3.81-42.24c-.07-1.64-.13-3.28-.15-4.92,0-1.39.29-3.07-.06-4.43-.75-2.85-1.58-5.6-2.08-8.53a164.18,164.18,0,0,1-1.91-17c-.65-9.69-1.34-19.39-2-29.09-.24-3.82-.49-7.61-1-11.41,7.79,4.49,21.92,2.42,24.06-7.76-4.26,8.27-17.12,9.79-24.07,4.1-1.63-1.34-3.24-3.15-3.29-5.32-.06-2.79-.15-5.59-.26-8.37-.22-5.34-.55-10.68-1.17-16-.62,5.31-1,10.65-1.17,16-.11,2.78-.2,5.58-.26,8.37,0,2.17-1.66,4-3.29,5.32-7,5.69-19.81,4.17-24.07-4.1,2.14,10.18,16.27,12.25,24.06,7.76-.81,5.65-1,11.35-1.4,17q-.54,7.79-1.06,15.56c-.57,8.5-1,17-2.52,25.41-.27,1.54-.58,3.07-.95,4.58-.31,1.25-.91,2.5-1.13,3.76a29.26,29.26,0,0,0,0,4.39c0,1.9-.11,3.8-.2,5.7-.33,6.94-.83,13.87-1.41,20.79-1.18,14.22-3.84,28.24-5,42.45a64.71,64.71,0,0,0-.28,10.13c.25,3.33.67,6.72,1.2,10,.5,3.08,1.44,6.72,0,9.7-1.37,2.83-5,3.31-7.83,3.19a14.87,14.87,0,0,1-4.6-1.05c-1.33-.51-2.54-1.42-3.85-1.9-2.78-1-6.09.92-8.86-.09-2.11-.78-4.82-4.23-3.44-6.49a6.5,6.5,0,0,1,3.07-2.26,16.32,16.32,0,0,1,2-.72,8.77,8.77,0,0,0,2.18-.59c.74-.48,1.11-1.9,1.47-2.63l2.16-4.46c.89-1.83,2.4-3.85,2.76-5.82.57-3.08.16-6.51,0-9.61-.14-3.4-.36-6.81-.59-10.21q-.72-10.59-1.78-21.16c-.68-6.87-1.8-13.73-2.07-20.63a76.28,76.28,0,0,1,1.72-20.66,42.44,42.44,0,0,0,1.23-9.46c.06-3.51,0-7-.19-10.53-.31-7.05-.8-14.09-1.42-21.12-1.23-14-1.12-27.94-.81-41.95.16-7,.61-13.82,1.44-20.74.86-7.13,1.8-14.26,2.59-21.4a171.18,171.18,0,0,0,1-20.12c0-2.33-.06-4.66-.1-7-.07-4.9-.13-9.8-.22-14.7,0-2.5-.06-5-.13-7.5a6.84,6.84,0,0,0-.9-3.45c-.49-.81-1.9-2.57-3-2.53s.38,2.45.61,3.09a9.75,9.75,0,0,1,.5,3.12c0,1.82.4,4,0,5.77C57.56,138.9,56.68,141,56,143l-6,18c-.19.59-.45,1.19-.59,1.79-.46,1.92-.25,4.11-.5,6.08a138.92,138.92,0,0,1-4.32,19.86,86.4,86.4,0,0,1-3.06,9.6c-1.34,3.24-2.87,6.41-4.38,9.57-.73,1.53-1.47,3.05-2.21,4.58-.32.65-.69,1.29-1,1.93A2.53,2.53,0,0,0,33.8,216a82.82,82.82,0,0,1,.06,10.21c-.13,3.19-.09,6.32-.09,9.5a44.66,44.66,0,0,1-.21,4.77c0,.42-.24,3.37-.89,3.46-1.19,0-1.64-5.28-1.76-6.06-.15-1-.17-2.78-.95-3.55-1.06-1.05-1.85.23-2.07,1.2a37.78,37.78,0,0,0-.57,4.75c-.14,1.4-.27,2.8-.49,4.18-.15,1-.26,3.1-1.11,3.78-1-.17-.86-5-.86-5.66,0-2.29.24-4.62.06-6.9-.14-1.86-1.7-2.32-2.3-.37a28.71,28.71,0,0,0-.68,3.19c-.21,1.11-1.89,11.44-3.23,10.95-.51-.19-.43-2.15-.44-2.58a27.87,27.87,0,0,1,.19-3.66c.11-1.19.26-2.38.42-3.57.25-1.84,1-4.28.67-6.1-.1-.54-.41-1.06-1.05-1s-1,.81-1.2,1.33c-.43.94-.77,1.93-1.13,2.89a37.56,37.56,0,0,1-2.64,6.11c-.2.32-.93,1.68-1.4,1.49s-.29-2.15-.24-2.56c.46-4,2.25-7.47,3.25-11.26.26-1,.38-2,.56-3a16.86,16.86,0,0,0,.56-3c0-.56-.3-1.19-1-1s-1.42,1.81-1.91,2.43c-1.3,1.64-3.51,3.64-5.79,2.81.56-1.36,2-2.27,2.73-3.52,1.15-1.92,1.79-4.12,2.94-6a18.13,18.13,0,0,1,4.28-4.67,36.22,36.22,0,0,1,5.77-3.29c.75-.4.65-.66.68-1.42a27,27,0,0,1,.72-3.84c.47-2.47.95-4.93,1.45-7.4,1-4.84,2-9.68,3.06-14.5s2.22-9.64,3.55-14.41c.64-2.3,1.34-4.58,2.17-6.82a23.59,23.59,0,0,0,.87-5.81c1-9.93,1.69-19.89,2.71-29.81.49-4.81.72-9.87,2-14.54a26.48,26.48,0,0,1,6.2-11.4C52.94,94.6,62,91.94,70.56,89.81a12.79,12.79,0,0,0,9.19-7.73,25,25,0,0,0,1.77-6.58,15.48,15.48,0,0,0,.28-3.39c-.07-.83-.44-1-1.11-1.48-6.82-4.71-11.48-12-13.8-19.89-2.64-8.91-3.28-19.34-.23-28.22A23.82,23.82,0,0,1,85.39,6.83c8.81-1.58,19-.6,26.11,5.35s9.11,15.43,8.88,24.25-2.32,18.13-7.46,25.6a33.58,33.58,0,0,1-8.48,8.58c-.55.38-1,.55-1.13,1.24a11.19,11.19,0,0,0,.16,3.41,25,25,0,0,0,1.6,6.49,12.89,12.89,0,0,0,9,8.1A91.29,91.29,0,0,1,127.25,94c8.26,3.53,14.48,9.5,17,18.24,1.33,4.55,1.56,9.49,2,14.19.51,4.91.95,9.83,1.36,14.75s.82,10,1.32,15a31.72,31.72,0,0,0,.79,6.24c.71,2.26,1.57,4.47,2.22,6.76,2.72,9.53,4.76,19.27,6.73,29q.76,3.74,1.49,7.47c.22,1.12.43,2.23.64,3.35s.11,1.78,1.19,2.29c3.88,1.84,8,4.28,10.06,8.26,1,1.85,1.63,3.83,2.7,5.63.75,1.25,2.17,2.15,2.73,3.52Z"/><circle id="Pli_du_soutien_gorge" data-name="Pli du soutien gorge" class="cls-3" cx="62.4" cy="146" r="8.43"/><circle id="Culotte_de_cheval" data-name="Culotte de cheval" class="cls-3" cx="128.66" cy="219.67" r="8.43"/><circle id="Fesses" class="cls-3" cx="76.59" cy="228.1" r="8.43"/><circle id="Cuisses" class="cls-3" cx="113.75" cy="272.78" r="8.43"/><circle id="Mollets" class="cls-3" cx="68.43" cy="345" r="8.43"/><line class="cls-4" y1="146" x2="53.96" y2="146"/><line class="cls-4" x1="-0.02" y1="228.18" x2="68.49" y2="228.03"/><line class="cls-4" x1="-1.37" y1="345.22" x2="60" y2="345"/><line class="cls-4" x1="121.7" y1="272.78" x2="184.45" y2="272.78"/><line class="cls-4" x1="137.09" y1="219.67" x2="184.45" y2="219.67"/></svg>